# xmcd
# 
# Track frame offsets:
#     150
#     17685
#     35202
#     55250
#     74947
#     91940
#     113215
#     132642
#     152114
#     171337
#     190775
#     209965
#     228425
#     250989
#     265852
#     282582
#     300184
#     318984
#     336315
# 
# Disc length: 4725
# 
# Revision: 72
# Processed by: cddbd v1.5.2PL0 Copyright (c) Steve Scherf et al.
# Submitted via: BonkEnc v1.0.6
# 
DISCID=2a127313
DTITLE=Robbie Williams - Greatest Hits
DYEAR=2004
DGENRE=Pop
TTITLE0=Old Before I Die
TTITLE1=Lazy Days
TTITLE2=Angels
TTITLE3=Let Me Entertain You
TTITLE4=Millennium
TTITLE5=No Regrets
TTITLE6=Strong
TTITLE7=She's the One
TTITLE8=Rock DJ
TTITLE9=Kids
TTITLE10=Supreme (French Version)
TTITLE11=Let Love Be Your Energy
TTITLE12=Eternity
TTITLE13=The Road To Mandalay
TTITLE14=Feel
TTITLE15=Come Undone
TTITLE16=Sexed Up
TTITLE17=Radio
TTITLE18=Misunderstood
EXTD=YEAR: 2004
EXTT0=
EXTT1=
EXTT2=
EXTT3=
EXTT4=
EXTT5=
EXTT6=
EXTT7=
EXTT8=
EXTT9=
EXTT10=
EXTT11=
EXTT12=
EXTT13=
EXTT14=
EXTT15=
EXTT16=
EXTT17=
EXTT18=
PLAYORDER=
